<svg xmlns="http://www.w3.org/2000/svg" viewBox="0 0 800 480" fill="none">
  <rect width="800" height="480" fill="#0c080c"/>
  <rect x="24" y="24" width="752" height="432" rx="12" fill="#150d18" stroke="#3b1230" stroke-width="1"/>
  <text x="48" y="68" fill="#f9a8d4" font-family="system-ui,sans-serif" font-size="14" font-weight="600">Xcelight Analytics</text>
  <text x="48" y="88" fill="#64748b" font-family="system-ui,sans-serif" font-size="11">AI Video Ę Emotion Detection</text>
  <rect x="48" y="108" width="340" height="200" rx="8" fill="#1a0f1c" stroke="#4a1d3a"/>
  <rect x="60" y="120" width="316" height="176" rx="4" fill="#0f0a12"/>
  <circle cx="218" cy="208" r="48" fill="none" stroke="#f9a8d4" stroke-width="2" opacity="0.4"/>
  <circle cx="218" cy="208" r="32" fill="#f9a8d4" opacity="0.15"/>
  <text x="168" y="290" fill="#94a3b8" font-family="system-ui,sans-serif" font-size="10">Feed #2847 Ę Live</text>
  <rect x="408" y="108" width="344" height="92" rx="8" fill="#1a0f1c" stroke="#4a1d3a"/>
  <text x="428" y="136" fill="#64748b" font-family="system-ui,sans-serif" font-size="10">Emotion score</text>
  <text x="428" y="172" fill="#f9a8d4" font-family="system-ui,sans-serif" font-size="28" font-weight="700">0.84</text>
  <rect x="408" y="216" width="164" height="92" rx="8" fill="#1a0f1c" stroke="#4a1d3a"/>
  <text x="428" y="244" fill="#64748b" font-family="system-ui,sans-serif" font-size="10">Latency</text>
  <text x="428" y="280" fill="#f9a8d4" font-family="system-ui,sans-serif" font-size="22" font-weight="700">-50%</text>
  <rect x="588" y="216" width="164" height="92" rx="8" fill="#1a0f1c" stroke="#4a1d3a"/>
  <text x="608" y="244" fill="#64748b" font-family="system-ui,sans-serif" font-size="10">Feeds</text>
  <text x="608" y="280" fill="#f9a8d4" font-family="system-ui,sans-serif" font-size="22" font-weight="700">3.2k</text>
  <rect x="48" y="328" width="704" height="108" rx="8" fill="#120a16" stroke="#4a1d3a"/>
  <text x="68" y="356" fill="#64748b" font-family="system-ui,sans-serif" font-size="11">KPI trend Ę last hour</text>
  <rect x="80" y="380" width="40" height="40" rx="4" fill="#f9a8d4" opacity="0.7"/>
  <rect x="140" y="392" width="40" height="28" rx="4" fill="#f9a8d4" opacity="0.5"/>
  <rect x="200" y="368" width="40" height="52" rx="4" fill="#f9a8d4" opacity="0.8"/>
  <rect x="260" y="376" width="40" height="44" rx="4" fill="#f9a8d4" opacity="0.6"/>
  <rect x="320" y="360" width="40" height="60" rx="4" fill="#f9a8d4" opacity="0.9"/>
  <rect x="380" y="372" width="40" height="48" rx="4" fill="#f9a8d4" opacity="0.55"/>
  <rect x="440" y="364" width="40" height="56" rx="4" fill="#f9a8d4" opacity="0.75"/>
  <rect x="500" y="356" width="40" height="64" rx="4" fill="#f9a8d4"/>
</svg>
